<svg viewBox="0 0 184 251" fill="none" role="img" aria-labelledby="title desc" xmlns="http://www.w3.org/2000/svg">
  <title>Tina</title>
  <desc>A proud llama</desc>
  <path fill-rule="evenodd" clip-rule="evenodd" d="M136.45 46.622C132.188 72.3075 126.871 104.349 118.087 111.501C105.695 121.59 68.3154 124.666 40.5475 125.302C12.7796 125.937 6.32416 132.032 0 144.715C0 144.715 12.9103 151.179 14.8171 158.586C16.7239 165.992 18.3415 182.621 10.1062 211.94C7.95174 219.61 10.2363 225.667 14.2835 236.397C15.8215 240.475 17.614 245.227 19.5141 251H30.8515C30.8515 251 31.8623 227.038 34.3026 217.442C36.7428 207.845 50.2636 190.689 70.5378 189.415C90.812 188.141 113.676 189.415 113.676 189.415C113.676 189.415 111.951 201.73 116.265 214.044C120.578 226.359 141.613 251 141.613 251H155.951C155.951 251 145.733 233.19 145.733 211.94C145.733 190.689 174.287 139.494 174.287 139.494C174.287 139.494 164.571 56.2649 168.884 47.772C173.197 39.2792 180.445 40.1919 180.445 40.1919L183.916 31.184C183.916 31.184 167.823 24.6023 165.474 17.2392C163.124 9.87608 168.884 0.00921995 168.884 0.00921995C168.884 0.00921995 146.699 -1.07782 141.334 20.3547C139.773 26.5947 138.2 36.0722 136.45 46.622ZM62.3695 251C46.7982 237.4 43.8672 210.712 43.8672 210.712C45.6219 206.746 54.1271 199.53 60.9144 197.355C60.9144 197.355 62.3695 236.126 75.7138 251H62.3695Z" fill="url(#paint0_linear_264_381)" />
  <defs>
    <linearGradient id="paint0_linear_264_381" x1="-11.5" y1="312" x2="168" y2="-44.0003" gradientUnits="userSpaceOnUse">
      <stop stop-color="#4DD1D1" />
      <stop offset="0.375077" stop-color="#2AAECF" />
      <stop offset="0.64225" stop-color="#2796FF" />
      <stop offset="1" stop-color="#0084FF" />
    </linearGradient>
  </defs>
</svg>
  